<mxfile host="app.diagrams.net" agent="Mozilla/5.0 (Windows NT 10.0; Win64; x64; rv:139.0) Gecko/20100101 Firefox/139.0" version="27.1.0" pages="2">
  <diagram name="Mouse-infection" id="aC610Xakk1KsU0vBIlgt">
    <mxGraphModel dx="888" dy="509" grid="1" gridSize="10" guides="1" tooltips="1" connect="1" arrows="1" fold="1" page="1" pageScale="1" pageWidth="850" pageHeight="1100" math="0" shadow="0">
      <root>
        <mxCell id="0" />
        <mxCell id="1" parent="0" />
        <mxCell id="6908pkDLkclZakEo6qM3-1" value="&lt;div&gt;Infected&amp;nbsp;&lt;i&gt;&lt;br&gt;&lt;/i&gt;&lt;/div&gt;&lt;div&gt;individual&lt;/div&gt;" style="rounded=1;whiteSpace=wrap;html=1;fillColor=#dae8fc;strokeColor=#6c8ebf;" vertex="1" parent="1">
          <mxGeometry x="400" y="380" width="80" height="40" as="geometry" />
        </mxCell>
        <mxCell id="6908pkDLkclZakEo6qM3-20" style="edgeStyle=none;curved=1;rounded=0;orthogonalLoop=1;jettySize=auto;html=1;exitX=0.5;exitY=1;exitDx=0;exitDy=0;entryX=0.5;entryY=0;entryDx=0;entryDy=0;fontSize=12;startSize=8;endSize=8;" edge="1" parent="1" source="6908pkDLkclZakEo6qM3-3" target="6908pkDLkclZakEo6qM3-1">
          <mxGeometry relative="1" as="geometry" />
        </mxCell>
        <mxCell id="6908pkDLkclZakEo6qM3-3" value="&lt;div&gt;&lt;i&gt;Borrelia&lt;/i&gt;&lt;/div&gt;&lt;div&gt;prevalence&lt;/div&gt;" style="rounded=1;whiteSpace=wrap;html=1;fillColor=#fff2cc;strokeColor=#d6b656;rotation=0;" vertex="1" parent="1">
          <mxGeometry x="400" y="280" width="80" height="40" as="geometry" />
        </mxCell>
        <mxCell id="6908pkDLkclZakEo6qM3-21" style="edgeStyle=none;curved=1;rounded=0;orthogonalLoop=1;jettySize=auto;html=1;exitX=0.5;exitY=0;exitDx=0;exitDy=0;entryX=0.5;entryY=1;entryDx=0;entryDy=0;fontSize=12;startSize=8;endSize=8;" edge="1" parent="1" source="6908pkDLkclZakEo6qM3-4" target="6908pkDLkclZakEo6qM3-1">
          <mxGeometry relative="1" as="geometry" />
        </mxCell>
        <mxCell id="6908pkDLkclZakEo6qM3-4" value="&lt;div&gt;Sex&lt;/div&gt;" style="rounded=1;whiteSpace=wrap;html=1;fillColor=#dae8fc;strokeColor=#6c8ebf;rotation=0;" vertex="1" parent="1">
          <mxGeometry x="400" y="480" width="80" height="40" as="geometry" />
        </mxCell>
        <mxCell id="6908pkDLkclZakEo6qM3-19" style="edgeStyle=none;curved=1;rounded=0;orthogonalLoop=1;jettySize=auto;html=1;exitX=1;exitY=0.5;exitDx=0;exitDy=0;entryX=0;entryY=1;entryDx=0;entryDy=0;fontSize=12;startSize=8;endSize=8;" edge="1" parent="1" source="6908pkDLkclZakEo6qM3-5" target="6908pkDLkclZakEo6qM3-1">
          <mxGeometry relative="1" as="geometry" />
        </mxCell>
        <mxCell id="6908pkDLkclZakEo6qM3-5" value="&lt;div&gt;Immune&amp;nbsp;&lt;/div&gt;&lt;div&gt;expression&lt;/div&gt;" style="rounded=1;whiteSpace=wrap;html=1;fillColor=#dae8fc;strokeColor=#6c8ebf;rotation=0;" vertex="1" parent="1">
          <mxGeometry x="280" y="420" width="80" height="40" as="geometry" />
        </mxCell>
        <mxCell id="6908pkDLkclZakEo6qM3-18" style="edgeStyle=none;curved=1;rounded=0;orthogonalLoop=1;jettySize=auto;html=1;exitX=1;exitY=0.5;exitDx=0;exitDy=0;entryX=0;entryY=0;entryDx=0;entryDy=0;fontSize=12;startSize=8;endSize=8;" edge="1" parent="1" source="6908pkDLkclZakEo6qM3-6" target="6908pkDLkclZakEo6qM3-1">
          <mxGeometry relative="1" as="geometry" />
        </mxCell>
        <mxCell id="6908pkDLkclZakEo6qM3-6" value="&lt;div&gt;Ticks&lt;/div&gt;&lt;div&gt;attached&lt;/div&gt;" style="rounded=1;whiteSpace=wrap;html=1;fillColor=#dae8fc;strokeColor=#6c8ebf;rotation=0;" vertex="1" parent="1">
          <mxGeometry x="280" y="340" width="80" height="40" as="geometry" />
        </mxCell>
        <mxCell id="6908pkDLkclZakEo6qM3-23" style="edgeStyle=none;curved=1;rounded=0;orthogonalLoop=1;jettySize=auto;html=1;exitX=0;exitY=0.5;exitDx=0;exitDy=0;entryX=1;entryY=0;entryDx=0;entryDy=0;fontSize=12;startSize=8;endSize=8;" edge="1" parent="1" source="6908pkDLkclZakEo6qM3-7" target="6908pkDLkclZakEo6qM3-1">
          <mxGeometry relative="1" as="geometry" />
        </mxCell>
        <mxCell id="6908pkDLkclZakEo6qM3-7" value="Weight" style="rounded=1;whiteSpace=wrap;html=1;fillColor=#dae8fc;strokeColor=#6c8ebf;rotation=0;" vertex="1" parent="1">
          <mxGeometry x="520" y="340" width="80" height="40" as="geometry" />
        </mxCell>
        <mxCell id="6908pkDLkclZakEo6qM3-22" style="edgeStyle=none;curved=1;rounded=0;orthogonalLoop=1;jettySize=auto;html=1;exitX=0;exitY=0.5;exitDx=0;exitDy=0;entryX=1;entryY=1;entryDx=0;entryDy=0;fontSize=12;startSize=8;endSize=8;" edge="1" parent="1" source="6908pkDLkclZakEo6qM3-8" target="6908pkDLkclZakEo6qM3-1">
          <mxGeometry relative="1" as="geometry" />
        </mxCell>
        <mxCell id="6908pkDLkclZakEo6qM3-8" value="Age" style="rounded=1;whiteSpace=wrap;html=1;fillColor=#dae8fc;strokeColor=#6c8ebf;rotation=0;" vertex="1" parent="1">
          <mxGeometry x="520" y="420" width="80" height="40" as="geometry" />
        </mxCell>
        <mxCell id="6908pkDLkclZakEo6qM3-9" style="edgeStyle=none;curved=1;rounded=0;orthogonalLoop=1;jettySize=auto;html=1;exitX=1;exitY=0.5;exitDx=0;exitDy=0;fontSize=12;startSize=8;endSize=8;" edge="1" parent="1" source="6908pkDLkclZakEo6qM3-8" target="6908pkDLkclZakEo6qM3-8">
          <mxGeometry relative="1" as="geometry" />
        </mxCell>
        <mxCell id="6908pkDLkclZakEo6qM3-24" value="&lt;div&gt;Habitat and&lt;/div&gt;&lt;div&gt;resources&lt;/div&gt;" style="rounded=0;whiteSpace=wrap;html=1;fillColor=#d5e8d4;strokeColor=#82b366;rotation=0;" vertex="1" parent="1">
          <mxGeometry x="680" y="400" width="80" height="40" as="geometry" />
        </mxCell>
        <mxCell id="6908pkDLkclZakEo6qM3-25" value="&lt;i&gt;Ixodes&lt;/i&gt;" style="rounded=0;whiteSpace=wrap;html=1;fillColor=#fff2cc;strokeColor=#d6b656;rotation=0;" vertex="1" parent="1">
          <mxGeometry x="680" y="360" width="80" height="40" as="geometry" />
        </mxCell>
        <mxCell id="6908pkDLkclZakEo6qM3-26" value="&lt;i&gt;Peromyscus&lt;/i&gt;" style="rounded=0;whiteSpace=wrap;html=1;fillColor=#dae8fc;strokeColor=#6c8ebf;rotation=0;" vertex="1" parent="1">
          <mxGeometry x="680" y="320" width="80" height="40" as="geometry" />
        </mxCell>
        <mxCell id="6908pkDLkclZakEo6qM3-27" value="&lt;div&gt;Climate and&lt;/div&gt;&lt;div&gt;weather&lt;/div&gt;" style="rounded=0;whiteSpace=wrap;html=1;fillColor=#f8cecc;strokeColor=#b85450;rotation=0;" vertex="1" parent="1">
          <mxGeometry x="680" y="440" width="80" height="40" as="geometry" />
        </mxCell>
        <mxCell id="6908pkDLkclZakEo6qM3-29" value="&lt;b&gt;Legend:&lt;/b&gt;" style="rounded=0;whiteSpace=wrap;html=1;rotation=0;" vertex="1" parent="1">
          <mxGeometry x="680" y="300" width="80" height="20" as="geometry" />
        </mxCell>
      </root>
    </mxGraphModel>
  </diagram>
  <diagram id="2vCKj_6OgiJKn8WWIvdi" name="Tick-attachment">
    <mxGraphModel dx="740" dy="424" grid="1" gridSize="10" guides="1" tooltips="1" connect="1" arrows="1" fold="1" page="1" pageScale="1" pageWidth="850" pageHeight="1100" math="0" shadow="0">
      <root>
        <mxCell id="0" />
        <mxCell id="1" parent="0" />
        <mxCell id="cooUGoMRgFHLHxUQkryW-1" value="&lt;div&gt;# Ticks&lt;/div&gt;&lt;div&gt;attached&lt;/div&gt;" style="rounded=1;whiteSpace=wrap;html=1;fillColor=#dae8fc;strokeColor=#6c8ebf;" vertex="1" parent="1">
          <mxGeometry x="100" y="430" width="80" height="40" as="geometry" />
        </mxCell>
        <mxCell id="YRyxvnmTehunCaQANge9-1" value="&lt;div&gt;Habitat and&lt;/div&gt;&lt;div&gt;resources&lt;/div&gt;" style="rounded=0;whiteSpace=wrap;html=1;fillColor=#d5e8d4;strokeColor=#82b366;rotation=0;" vertex="1" parent="1">
          <mxGeometry x="580" y="480" width="80" height="40" as="geometry" />
        </mxCell>
        <mxCell id="YRyxvnmTehunCaQANge9-2" value="&lt;i&gt;Ixodes&lt;/i&gt;" style="rounded=0;whiteSpace=wrap;html=1;fillColor=#fff2cc;strokeColor=#d6b656;rotation=0;" vertex="1" parent="1">
          <mxGeometry x="580" y="440" width="80" height="40" as="geometry" />
        </mxCell>
        <mxCell id="YRyxvnmTehunCaQANge9-3" value="&lt;i&gt;Peromyscus&lt;/i&gt;" style="rounded=0;whiteSpace=wrap;html=1;fillColor=#dae8fc;strokeColor=#6c8ebf;rotation=0;" vertex="1" parent="1">
          <mxGeometry x="580" y="400" width="80" height="40" as="geometry" />
        </mxCell>
        <mxCell id="YRyxvnmTehunCaQANge9-4" value="&lt;div&gt;Climate and&lt;/div&gt;&lt;div&gt;weather&lt;/div&gt;" style="rounded=0;whiteSpace=wrap;html=1;fillColor=#f8cecc;strokeColor=#b85450;rotation=0;" vertex="1" parent="1">
          <mxGeometry x="580" y="520" width="80" height="40" as="geometry" />
        </mxCell>
        <mxCell id="YRyxvnmTehunCaQANge9-5" value="&lt;b&gt;Legend:&lt;/b&gt;" style="rounded=0;whiteSpace=wrap;html=1;rotation=0;" vertex="1" parent="1">
          <mxGeometry x="580" y="380" width="80" height="20" as="geometry" />
        </mxCell>
        <mxCell id="YRyxvnmTehunCaQANge9-26" style="edgeStyle=none;curved=1;rounded=0;orthogonalLoop=1;jettySize=auto;html=1;exitX=0.5;exitY=0;exitDx=0;exitDy=0;entryX=0.5;entryY=1;entryDx=0;entryDy=0;fontSize=12;startSize=8;endSize=8;fillColor=#dae8fc;strokeColor=#6c8ebf;" edge="1" parent="1" source="YRyxvnmTehunCaQANge9-6" target="YRyxvnmTehunCaQANge9-8">
          <mxGeometry relative="1" as="geometry" />
        </mxCell>
        <mxCell id="YRyxvnmTehunCaQANge9-32" style="edgeStyle=none;curved=1;rounded=0;orthogonalLoop=1;jettySize=auto;html=1;exitX=0.5;exitY=0;exitDx=0;exitDy=0;entryX=0.5;entryY=1;entryDx=0;entryDy=0;fontSize=12;startSize=8;endSize=8;fillColor=#dae8fc;strokeColor=#6c8ebf;" edge="1" parent="1" source="YRyxvnmTehunCaQANge9-6" target="cooUGoMRgFHLHxUQkryW-1">
          <mxGeometry relative="1" as="geometry" />
        </mxCell>
        <mxCell id="YRyxvnmTehunCaQANge9-33" style="edgeStyle=none;curved=1;rounded=0;orthogonalLoop=1;jettySize=auto;html=1;exitX=0.5;exitY=0;exitDx=0;exitDy=0;entryX=0.5;entryY=1;entryDx=0;entryDy=0;fontSize=12;startSize=8;endSize=8;fillColor=#dae8fc;strokeColor=#6c8ebf;" edge="1" parent="1" source="YRyxvnmTehunCaQANge9-6" target="YRyxvnmTehunCaQANge9-9">
          <mxGeometry relative="1" as="geometry" />
        </mxCell>
        <mxCell id="YRyxvnmTehunCaQANge9-34" style="edgeStyle=none;curved=1;rounded=0;orthogonalLoop=1;jettySize=auto;html=1;exitX=0.5;exitY=0;exitDx=0;exitDy=0;entryX=0.5;entryY=1;entryDx=0;entryDy=0;fontSize=12;startSize=8;endSize=8;fillColor=#dae8fc;strokeColor=#6c8ebf;" edge="1" parent="1" source="YRyxvnmTehunCaQANge9-6" target="YRyxvnmTehunCaQANge9-10">
          <mxGeometry relative="1" as="geometry" />
        </mxCell>
        <mxCell id="YRyxvnmTehunCaQANge9-6" value="&lt;div&gt;Movement&lt;/div&gt;&lt;div&gt;distance&lt;/div&gt;" style="rounded=1;whiteSpace=wrap;html=1;fillColor=#dae8fc;strokeColor=#6c8ebf;" vertex="1" parent="1">
          <mxGeometry x="280" y="550" width="80" height="40" as="geometry" />
        </mxCell>
        <mxCell id="YRyxvnmTehunCaQANge9-35" style="edgeStyle=none;curved=1;rounded=0;orthogonalLoop=1;jettySize=auto;html=1;exitX=0.5;exitY=0;exitDx=0;exitDy=0;entryX=0.75;entryY=1;entryDx=0;entryDy=0;fontSize=12;startSize=8;endSize=8;fillColor=#dae8fc;strokeColor=#6c8ebf;" edge="1" parent="1" source="YRyxvnmTehunCaQANge9-7" target="cooUGoMRgFHLHxUQkryW-1">
          <mxGeometry relative="1" as="geometry" />
        </mxCell>
        <mxCell id="YRyxvnmTehunCaQANge9-36" style="edgeStyle=none;curved=1;rounded=0;orthogonalLoop=1;jettySize=auto;html=1;exitX=0.5;exitY=0;exitDx=0;exitDy=0;entryX=0.75;entryY=1;entryDx=0;entryDy=0;fontSize=12;startSize=8;endSize=8;fillColor=#dae8fc;strokeColor=#6c8ebf;" edge="1" parent="1" source="YRyxvnmTehunCaQANge9-7" target="YRyxvnmTehunCaQANge9-8">
          <mxGeometry relative="1" as="geometry" />
        </mxCell>
        <mxCell id="YRyxvnmTehunCaQANge9-37" style="edgeStyle=none;curved=1;rounded=0;orthogonalLoop=1;jettySize=auto;html=1;exitX=0.5;exitY=0;exitDx=0;exitDy=0;entryX=0.75;entryY=1;entryDx=0;entryDy=0;fontSize=12;startSize=8;endSize=8;fillColor=#dae8fc;strokeColor=#6c8ebf;" edge="1" parent="1" source="YRyxvnmTehunCaQANge9-7" target="YRyxvnmTehunCaQANge9-10">
          <mxGeometry relative="1" as="geometry" />
        </mxCell>
        <mxCell id="YRyxvnmTehunCaQANge9-7" value="&lt;div&gt;Capture&amp;nbsp;&lt;/div&gt;&lt;div&gt;time&lt;/div&gt;" style="rounded=1;whiteSpace=wrap;html=1;fillColor=#dae8fc;strokeColor=#6c8ebf;" vertex="1" parent="1">
          <mxGeometry x="370" y="550" width="80" height="40" as="geometry" />
        </mxCell>
        <mxCell id="YRyxvnmTehunCaQANge9-12" style="edgeStyle=none;curved=1;rounded=0;orthogonalLoop=1;jettySize=auto;html=1;exitX=0;exitY=0.5;exitDx=0;exitDy=0;entryX=1;entryY=0.5;entryDx=0;entryDy=0;fontSize=12;startSize=8;endSize=8;fillColor=#dae8fc;strokeColor=#6c8ebf;" edge="1" parent="1" source="YRyxvnmTehunCaQANge9-8" target="cooUGoMRgFHLHxUQkryW-1">
          <mxGeometry relative="1" as="geometry" />
        </mxCell>
        <mxCell id="YRyxvnmTehunCaQANge9-8" value="&lt;div&gt;Larvae&lt;/div&gt;&lt;div&gt;attached&lt;/div&gt;" style="rounded=1;whiteSpace=wrap;html=1;fillColor=#dae8fc;strokeColor=#6c8ebf;" vertex="1" parent="1">
          <mxGeometry x="220" y="430" width="80" height="40" as="geometry" />
        </mxCell>
        <mxCell id="YRyxvnmTehunCaQANge9-14" style="edgeStyle=none;curved=0;rounded=1;orthogonalLoop=1;jettySize=auto;html=1;exitX=0;exitY=0.25;exitDx=0;exitDy=0;entryX=1;entryY=0;entryDx=0;entryDy=0;fontSize=12;startSize=8;endSize=8;strokeWidth=1;fillColor=#dae8fc;strokeColor=#6c8ebf;" edge="1" parent="1" source="YRyxvnmTehunCaQANge9-9" target="cooUGoMRgFHLHxUQkryW-1">
          <mxGeometry relative="1" as="geometry">
            <Array as="points">
              <mxPoint x="260" y="410" />
            </Array>
          </mxGeometry>
        </mxCell>
        <mxCell id="YRyxvnmTehunCaQANge9-9" value="&lt;div&gt;Nymphs&lt;/div&gt;&lt;div&gt;attached&lt;/div&gt;" style="rounded=1;whiteSpace=wrap;html=1;fillColor=#dae8fc;strokeColor=#6c8ebf;" vertex="1" parent="1">
          <mxGeometry x="340" y="430" width="80" height="40" as="geometry" />
        </mxCell>
        <mxCell id="YRyxvnmTehunCaQANge9-15" style="edgeStyle=none;curved=1;rounded=0;orthogonalLoop=1;jettySize=auto;html=1;exitX=0;exitY=0.25;exitDx=0;exitDy=0;entryX=0.5;entryY=0;entryDx=0;entryDy=0;fontSize=12;startSize=8;endSize=8;fillColor=#dae8fc;strokeColor=#6c8ebf;" edge="1" parent="1" source="YRyxvnmTehunCaQANge9-10" target="cooUGoMRgFHLHxUQkryW-1">
          <mxGeometry relative="1" as="geometry">
            <Array as="points">
              <mxPoint x="270" y="360" />
            </Array>
          </mxGeometry>
        </mxCell>
        <mxCell id="YRyxvnmTehunCaQANge9-10" value="&lt;div&gt;Adults&lt;/div&gt;&lt;div&gt;attached&lt;/div&gt;" style="rounded=1;whiteSpace=wrap;html=1;fillColor=#dae8fc;strokeColor=#6c8ebf;" vertex="1" parent="1">
          <mxGeometry x="460" y="430" width="80" height="40" as="geometry" />
        </mxCell>
        <mxCell id="YRyxvnmTehunCaQANge9-28" style="edgeStyle=none;curved=1;rounded=0;orthogonalLoop=1;jettySize=auto;html=1;exitX=0.5;exitY=0;exitDx=0;exitDy=0;entryX=1;entryY=1;entryDx=0;entryDy=0;fontSize=12;startSize=8;endSize=8;fillColor=#fff2cc;strokeColor=#d6b656;" edge="1" parent="1" source="YRyxvnmTehunCaQANge9-11" target="YRyxvnmTehunCaQANge9-10">
          <mxGeometry relative="1" as="geometry" />
        </mxCell>
        <mxCell id="YRyxvnmTehunCaQANge9-38" style="edgeStyle=none;curved=1;rounded=0;orthogonalLoop=1;jettySize=auto;html=1;exitX=0.5;exitY=0;exitDx=0;exitDy=0;entryX=1;entryY=1;entryDx=0;entryDy=0;fontSize=12;startSize=8;endSize=8;fillColor=#fff2cc;strokeColor=#d6b656;" edge="1" parent="1" source="YRyxvnmTehunCaQANge9-11" target="YRyxvnmTehunCaQANge9-9">
          <mxGeometry relative="1" as="geometry" />
        </mxCell>
        <mxCell id="YRyxvnmTehunCaQANge9-39" style="edgeStyle=none;curved=1;rounded=0;orthogonalLoop=1;jettySize=auto;html=1;exitX=0.5;exitY=0;exitDx=0;exitDy=0;entryX=1;entryY=1;entryDx=0;entryDy=0;fontSize=12;startSize=8;endSize=8;fillColor=#fff2cc;strokeColor=#d6b656;" edge="1" parent="1" source="YRyxvnmTehunCaQANge9-11" target="YRyxvnmTehunCaQANge9-8">
          <mxGeometry relative="1" as="geometry" />
        </mxCell>
        <mxCell id="YRyxvnmTehunCaQANge9-40" style="edgeStyle=none;curved=1;rounded=0;orthogonalLoop=1;jettySize=auto;html=1;exitX=0.5;exitY=0;exitDx=0;exitDy=0;entryX=1;entryY=1;entryDx=0;entryDy=0;fontSize=12;startSize=8;endSize=8;fillColor=#fff2cc;strokeColor=#d6b656;" edge="1" parent="1" source="YRyxvnmTehunCaQANge9-11" target="cooUGoMRgFHLHxUQkryW-1">
          <mxGeometry relative="1" as="geometry" />
        </mxCell>
        <mxCell id="YRyxvnmTehunCaQANge9-11" value="&lt;div&gt;Tick&lt;/div&gt;&lt;div&gt;density&lt;/div&gt;" style="rounded=1;whiteSpace=wrap;html=1;fillColor=#fff2cc;strokeColor=#d6b656;" vertex="1" parent="1">
          <mxGeometry x="460" y="550" width="80" height="40" as="geometry" />
        </mxCell>
        <mxCell id="YRyxvnmTehunCaQANge9-25" style="edgeStyle=none;curved=1;rounded=0;orthogonalLoop=1;jettySize=auto;html=1;exitX=0.5;exitY=0;exitDx=0;exitDy=0;entryX=0.25;entryY=1;entryDx=0;entryDy=0;fontSize=12;startSize=8;endSize=8;fillColor=#dae8fc;strokeColor=#6c8ebf;" edge="1" parent="1" source="YRyxvnmTehunCaQANge9-16" target="cooUGoMRgFHLHxUQkryW-1">
          <mxGeometry relative="1" as="geometry" />
        </mxCell>
        <mxCell id="YRyxvnmTehunCaQANge9-29" style="edgeStyle=none;curved=1;rounded=0;orthogonalLoop=1;jettySize=auto;html=1;exitX=0.5;exitY=0;exitDx=0;exitDy=0;entryX=0.25;entryY=1;entryDx=0;entryDy=0;fontSize=12;startSize=8;endSize=8;fillColor=#dae8fc;strokeColor=#6c8ebf;" edge="1" parent="1" source="YRyxvnmTehunCaQANge9-16" target="YRyxvnmTehunCaQANge9-8">
          <mxGeometry relative="1" as="geometry" />
        </mxCell>
        <mxCell id="YRyxvnmTehunCaQANge9-30" style="edgeStyle=none;curved=1;rounded=0;orthogonalLoop=1;jettySize=auto;html=1;exitX=0.5;exitY=0;exitDx=0;exitDy=0;entryX=0.25;entryY=1;entryDx=0;entryDy=0;fontSize=12;startSize=8;endSize=8;fillColor=#dae8fc;strokeColor=#6c8ebf;" edge="1" parent="1" source="YRyxvnmTehunCaQANge9-16" target="YRyxvnmTehunCaQANge9-9">
          <mxGeometry relative="1" as="geometry" />
        </mxCell>
        <mxCell id="YRyxvnmTehunCaQANge9-31" style="edgeStyle=none;curved=1;rounded=0;orthogonalLoop=1;jettySize=auto;html=1;exitX=0.5;exitY=0;exitDx=0;exitDy=0;entryX=0.25;entryY=1;entryDx=0;entryDy=0;fontSize=12;startSize=8;endSize=8;fillColor=#dae8fc;strokeColor=#6c8ebf;" edge="1" parent="1" source="YRyxvnmTehunCaQANge9-16" target="YRyxvnmTehunCaQANge9-10">
          <mxGeometry relative="1" as="geometry" />
        </mxCell>
        <mxCell id="YRyxvnmTehunCaQANge9-16" value="Sex" style="rounded=1;whiteSpace=wrap;html=1;fillColor=#dae8fc;strokeColor=#6c8ebf;" vertex="1" parent="1">
          <mxGeometry x="190" y="550" width="80" height="40" as="geometry" />
        </mxCell>
        <mxCell id="YRyxvnmTehunCaQANge9-21" style="edgeStyle=none;curved=1;rounded=0;orthogonalLoop=1;jettySize=auto;html=1;exitX=0.5;exitY=0;exitDx=0;exitDy=0;entryX=0;entryY=1;entryDx=0;entryDy=0;fontSize=12;startSize=8;endSize=8;fillColor=#dae8fc;strokeColor=#6c8ebf;" edge="1" parent="1" source="YRyxvnmTehunCaQANge9-17" target="cooUGoMRgFHLHxUQkryW-1">
          <mxGeometry relative="1" as="geometry" />
        </mxCell>
        <mxCell id="YRyxvnmTehunCaQANge9-22" style="edgeStyle=none;curved=1;rounded=0;orthogonalLoop=1;jettySize=auto;html=1;exitX=0.5;exitY=0;exitDx=0;exitDy=0;entryX=0;entryY=1;entryDx=0;entryDy=0;fontSize=12;startSize=8;endSize=8;fillColor=#dae8fc;strokeColor=#6c8ebf;" edge="1" parent="1" source="YRyxvnmTehunCaQANge9-17" target="YRyxvnmTehunCaQANge9-8">
          <mxGeometry relative="1" as="geometry" />
        </mxCell>
        <mxCell id="YRyxvnmTehunCaQANge9-23" style="edgeStyle=none;curved=1;rounded=0;orthogonalLoop=1;jettySize=auto;html=1;exitX=0.5;exitY=0;exitDx=0;exitDy=0;entryX=0;entryY=1;entryDx=0;entryDy=0;fontSize=12;startSize=8;endSize=8;fillColor=#dae8fc;strokeColor=#6c8ebf;" edge="1" parent="1" source="YRyxvnmTehunCaQANge9-17" target="YRyxvnmTehunCaQANge9-9">
          <mxGeometry relative="1" as="geometry" />
        </mxCell>
        <mxCell id="YRyxvnmTehunCaQANge9-24" style="edgeStyle=none;curved=1;rounded=0;orthogonalLoop=1;jettySize=auto;html=1;exitX=0.5;exitY=0;exitDx=0;exitDy=0;entryX=0;entryY=1;entryDx=0;entryDy=0;fontSize=12;startSize=8;endSize=8;fillColor=#dae8fc;strokeColor=#6c8ebf;" edge="1" parent="1" source="YRyxvnmTehunCaQANge9-17" target="YRyxvnmTehunCaQANge9-10">
          <mxGeometry relative="1" as="geometry" />
        </mxCell>
        <mxCell id="YRyxvnmTehunCaQANge9-17" value="&lt;div&gt;Size&lt;/div&gt;" style="rounded=1;whiteSpace=wrap;html=1;fillColor=#dae8fc;strokeColor=#6c8ebf;" vertex="1" parent="1">
          <mxGeometry x="100" y="550" width="80" height="40" as="geometry" />
        </mxCell>
        <mxCell id="YRyxvnmTehunCaQANge9-27" style="edgeStyle=none;curved=1;rounded=0;orthogonalLoop=1;jettySize=auto;html=1;exitX=0.5;exitY=0;exitDx=0;exitDy=0;entryX=0.75;entryY=1;entryDx=0;entryDy=0;fontSize=12;startSize=8;endSize=8;fillColor=#dae8fc;strokeColor=#6c8ebf;" edge="1" parent="1" source="YRyxvnmTehunCaQANge9-7" target="YRyxvnmTehunCaQANge9-9">
          <mxGeometry relative="1" as="geometry" />
        </mxCell>
        <mxCell id="YRyxvnmTehunCaQANge9-46" style="edgeStyle=none;curved=1;rounded=0;orthogonalLoop=1;jettySize=auto;html=1;exitX=0;exitY=0.75;exitDx=0;exitDy=0;entryX=0.25;entryY=0;entryDx=0;entryDy=0;fontSize=12;startSize=8;endSize=8;fillColor=#f8cecc;strokeColor=#b85450;" edge="1" parent="1" source="YRyxvnmTehunCaQANge9-41" target="cooUGoMRgFHLHxUQkryW-1">
          <mxGeometry relative="1" as="geometry" />
        </mxCell>
        <mxCell id="YRyxvnmTehunCaQANge9-47" style="edgeStyle=none;curved=1;rounded=0;orthogonalLoop=1;jettySize=auto;html=1;exitX=0.25;exitY=1;exitDx=0;exitDy=0;entryX=0.25;entryY=0;entryDx=0;entryDy=0;fontSize=12;startSize=8;endSize=8;fillColor=#f8cecc;strokeColor=#b85450;" edge="1" parent="1" source="YRyxvnmTehunCaQANge9-41" target="YRyxvnmTehunCaQANge9-8">
          <mxGeometry relative="1" as="geometry" />
        </mxCell>
        <mxCell id="YRyxvnmTehunCaQANge9-48" style="edgeStyle=none;curved=1;rounded=0;orthogonalLoop=1;jettySize=auto;html=1;exitX=0.75;exitY=1;exitDx=0;exitDy=0;entryX=0.25;entryY=0;entryDx=0;entryDy=0;fontSize=12;startSize=8;endSize=8;fillColor=#f8cecc;strokeColor=#b85450;" edge="1" parent="1" source="YRyxvnmTehunCaQANge9-41" target="YRyxvnmTehunCaQANge9-9">
          <mxGeometry relative="1" as="geometry" />
        </mxCell>
        <mxCell id="YRyxvnmTehunCaQANge9-49" style="edgeStyle=none;curved=1;rounded=0;orthogonalLoop=1;jettySize=auto;html=1;exitX=1;exitY=0.75;exitDx=0;exitDy=0;entryX=0.25;entryY=0;entryDx=0;entryDy=0;fontSize=12;startSize=8;endSize=8;fillColor=#f8cecc;strokeColor=#b85450;" edge="1" parent="1" source="YRyxvnmTehunCaQANge9-41" target="YRyxvnmTehunCaQANge9-10">
          <mxGeometry relative="1" as="geometry" />
        </mxCell>
        <mxCell id="YRyxvnmTehunCaQANge9-41" value="&lt;div&gt;Temp &amp;amp;&lt;/div&gt;&lt;div&gt;Precip&lt;/div&gt;" style="rounded=1;whiteSpace=wrap;html=1;fillColor=#f8cecc;strokeColor=#b85450;rotation=0;" vertex="1" parent="1">
          <mxGeometry x="220" y="330" width="80" height="40" as="geometry" />
        </mxCell>
        <mxCell id="YRyxvnmTehunCaQANge9-50" style="edgeStyle=none;curved=1;rounded=0;orthogonalLoop=1;jettySize=auto;html=1;exitX=0;exitY=0.75;exitDx=0;exitDy=0;entryX=0.75;entryY=0;entryDx=0;entryDy=0;fontSize=12;startSize=8;endSize=8;fillColor=#d5e8d4;strokeColor=#82b366;" edge="1" parent="1" source="YRyxvnmTehunCaQANge9-42" target="cooUGoMRgFHLHxUQkryW-1">
          <mxGeometry relative="1" as="geometry" />
        </mxCell>
        <mxCell id="YRyxvnmTehunCaQANge9-51" style="edgeStyle=none;curved=1;rounded=0;orthogonalLoop=1;jettySize=auto;html=1;exitX=0.25;exitY=1;exitDx=0;exitDy=0;entryX=0.75;entryY=0;entryDx=0;entryDy=0;fontSize=12;startSize=8;endSize=8;fillColor=#d5e8d4;strokeColor=#82b366;" edge="1" parent="1" source="YRyxvnmTehunCaQANge9-42" target="YRyxvnmTehunCaQANge9-8">
          <mxGeometry relative="1" as="geometry" />
        </mxCell>
        <mxCell id="YRyxvnmTehunCaQANge9-52" style="edgeStyle=none;curved=1;rounded=0;orthogonalLoop=1;jettySize=auto;html=1;exitX=0.75;exitY=1;exitDx=0;exitDy=0;entryX=0.75;entryY=0;entryDx=0;entryDy=0;fontSize=12;startSize=8;endSize=8;fillColor=#d5e8d4;strokeColor=#82b366;" edge="1" parent="1" source="YRyxvnmTehunCaQANge9-42" target="YRyxvnmTehunCaQANge9-9">
          <mxGeometry relative="1" as="geometry" />
        </mxCell>
        <mxCell id="YRyxvnmTehunCaQANge9-53" style="edgeStyle=none;curved=1;rounded=0;orthogonalLoop=1;jettySize=auto;html=1;exitX=1;exitY=0.75;exitDx=0;exitDy=0;entryX=0.75;entryY=0;entryDx=0;entryDy=0;fontSize=12;startSize=8;endSize=8;fillColor=#d5e8d4;strokeColor=#82b366;" edge="1" parent="1" source="YRyxvnmTehunCaQANge9-42" target="YRyxvnmTehunCaQANge9-10">
          <mxGeometry relative="1" as="geometry" />
        </mxCell>
        <mxCell id="YRyxvnmTehunCaQANge9-42" value="&lt;div&gt;Habitat&lt;/div&gt;&lt;div&gt;structure&lt;/div&gt;" style="rounded=1;whiteSpace=wrap;html=1;fillColor=#d5e8d4;strokeColor=#82b366;rotation=0;" vertex="1" parent="1">
          <mxGeometry x="340" y="330" width="80" height="40" as="geometry" />
        </mxCell>
      </root>
    </mxGraphModel>
  </diagram>
</mxfile>
